<svg width="270" height="63" viewBox="0 0 270 63" fill="none" xmlns="http://www.w3.org/2000/svg">
<mask id="path-1-inside-1_249_319" fill="white">
<path fill-rule="evenodd" clip-rule="evenodd" d="M14.3442 8.40929C13.1205 8.1955 12 9.13723 12 10.3794V56.551C12 57.8161 13.1598 58.7633 14.3994 58.5107L27 55.9424V10.6203L14.3442 8.40929Z"/>
</mask>
<path fill-rule="evenodd" clip-rule="evenodd" d="M14.3442 8.40929C13.1205 8.1955 12 9.13723 12 10.3794V56.551C12 57.8161 13.1598 58.7633 14.3994 58.5107L27 55.9424V10.6203L14.3442 8.40929Z" fill="#0019FF"/>
<path d="M14.3442 8.40929L14.8605 5.45405L14.3442 8.40929ZM14.3994 58.5107L14.9986 61.4502H14.9986L14.3994 58.5107ZM27 55.9424L27.5992 58.8819L30 58.3926V55.9424H27ZM27 10.6203H30V8.09903L27.5163 7.66511L27 10.6203ZM15 10.3794C15 11.0006 14.4397 11.4714 13.8279 11.3645L14.8605 5.45405C11.8013 4.91958 9 7.27391 9 10.3794H15ZM15 56.551V10.3794H9V56.551H15ZM13.8003 55.5711C14.4201 55.4448 15 55.9184 15 56.551H9C9 59.7137 11.8996 62.0819 14.9986 61.4502L13.8003 55.5711ZM26.4008 53.0028L13.8003 55.5711L14.9986 61.4502L27.5992 58.8819L26.4008 53.0028ZM30 55.9424V10.6203H24V55.9424H30ZM13.8279 11.3645L26.4837 13.5756L27.5163 7.66511L14.8605 5.45405L13.8279 11.3645Z" fill="white" mask="url(#path-1-inside-1_249_319)"/>
<mask id="path-3-inside-2_249_319" fill="white">
<path fill-rule="evenodd" clip-rule="evenodd" d="M15 13.6551V52.9029L2.40445 55.5038C1.16345 55.76 0 54.8123 0 53.5451V13.3853C0 12.1413 1.12359 11.1991 2.34856 11.4159L15 13.6551Z"/>
</mask>
<path fill-rule="evenodd" clip-rule="evenodd" d="M15 13.6551V52.9029L2.40445 55.5038C1.16345 55.76 0 54.8123 0 53.5451V13.3853C0 12.1413 1.12359 11.1991 2.34856 11.4159L15 13.6551Z" fill="white"/>
<path d="M15 13.6551H18V11.1395L15.5228 10.701L15 13.6551ZM15 52.9029L15.6067 55.8409L18 55.3467V52.9029H15ZM2.40445 55.5038L3.01111 58.4418H3.01112L2.40445 55.5038ZM2.34856 11.4159L2.87141 8.46184L2.34856 11.4159ZM12 13.6551V52.9029H18V13.6551H12ZM14.3933 49.9649L1.79778 52.5657L3.01112 58.4418L15.6067 55.8409L14.3933 49.9649ZM1.79778 52.5657C2.41827 52.4376 3 52.9115 3 53.5451H-3C-3 56.713 -0.0913816 59.0824 3.01111 58.4418L1.79778 52.5657ZM3 53.5451V13.3853H-3V53.5451H3ZM3 13.3853C3 14.0073 2.4382 14.4784 1.82572 14.37L2.87141 8.46184C-0.191014 7.91981 -3 10.2753 -3 13.3853H3ZM1.82572 14.37L14.4772 16.6092L15.5228 10.701L2.87141 8.46184L1.82572 14.37Z" fill="white" mask="url(#path-3-inside-2_249_319)"/>
<path fill-rule="evenodd" clip-rule="evenodd" d="M28.3442 8.03038C27.1205 7.81659 26 8.75832 26 10.0005V56.1721C26 57.4372 27.1598 58.3844 28.3994 58.1318L41 55.5634V10.2414L28.3442 8.03038Z" fill="#FF003D"/>
<path d="M27 57.8194V8.57577L55 13.5169V16C55 17.1046 55.8954 18 57 18H58V12.678C58 11.7075 57.3033 10.8771 56.3476 10.7084L26.3476 5.41428C25.1229 5.19816 24 6.14025 24 7.38385V59.0463C24 60.313 25.1626 61.2606 26.4033 61.0052L56.4033 54.8287C57.3329 54.6373 58 53.8189 58 52.8698V50H57C55.8954 50 55 50.8954 55 52V52.0547L27 57.8194Z" fill="white"/>
<path d="M36 34.5C36.8284 34.5 37.5 33.8284 37.5 33C37.5 32.1716 36.8284 31.5 36 31.5V34.5ZM26 34.5H36V31.5H26V34.5Z" fill="white"/>
<path d="M54.8 46.6C52.6133 46.6 50.84 46 49.48 44.8C48.1467 43.5733 47.48 41.7867 47.48 39.44V28C47.48 27.2 47.88 26.8 48.68 26.8H49.92C50.3467 26.8 50.6533 26.9067 50.84 27.12C51.0267 27.3067 51.12 27.6 51.12 28V39.4C51.12 40.9467 51.52 42.08 52.32 42.8C53.1467 43.4933 54.36 43.84 55.96 43.84C57.6667 43.84 59.1067 43.3733 60.28 42.44C61.4533 41.5067 62.04 40.3067 62.04 38.84V28C62.04 27.2 62.4533 26.8 63.28 26.8H64.48C64.9067 26.8 65.2133 26.9067 65.4 27.12C65.5867 27.3067 65.68 27.6 65.68 28V45C65.68 45.3733 65.6133 45.64 65.48 45.8C65.3733 45.9333 65.1467 46 64.8 46H63.48C63.1867 46 62.9867 45.9333 62.88 45.8C62.7733 45.6667 62.7067 45.4533 62.68 45.16L62.56 43.24C61.6533 44.3333 60.5733 45.1733 59.32 45.76C58.0933 46.32 56.5867 46.6 54.8 46.6ZM72.2794 46C71.4527 46 71.0394 45.6 71.0394 44.8V27.8C71.0394 27.4267 71.0927 27.1733 71.1994 27.04C71.3327 26.88 71.586 26.8 71.9594 26.8H73.2794C73.5727 26.8 73.7727 26.8667 73.8794 27C74.0127 27.1333 74.0927 27.3467 74.1194 27.64L74.1594 29.24C74.8794 28.28 75.7727 27.5333 76.8394 27C77.9327 26.4667 79.186 26.2 80.5994 26.2C81.586 26.2 82.306 26.3467 82.7594 26.64C82.9994 26.8 83.0794 27 82.9994 27.24L82.5594 29C82.4794 29.32 82.2794 29.4133 81.9594 29.28C81.426 29.04 80.7594 28.92 79.9594 28.92C78.4394 28.92 77.1727 29.3467 76.1594 30.2C75.1727 31.0533 74.6794 32.24 74.6794 33.76V44.8C74.6794 45.2 74.586 45.5067 74.3994 45.72C74.2127 45.9067 73.906 46 73.4794 46H72.2794ZM96.9416 46.6C94.9416 46.6 93.1149 46.2533 91.4616 45.56C89.8082 44.8667 88.4749 43.7867 87.4616 42.32C86.4749 40.8267 85.9816 38.9733 85.9816 36.76C85.9816 33.2933 86.8749 30.6667 88.6616 28.88C90.4749 27.0933 93.0349 26.2 96.3416 26.2C99.6216 26.2 102.088 27.0667 103.742 28.8C105.395 30.5067 106.222 33.0533 106.222 36.44C106.222 37.16 105.875 37.52 105.182 37.52H89.4616C89.4616 39.6267 90.1549 41.2267 91.5416 42.32C92.9282 43.4133 94.8482 43.96 97.3016 43.96C99.6216 43.96 101.622 43.44 103.302 42.4C103.462 42.32 103.582 42.28 103.662 42.28C103.822 42.28 103.942 42.3733 104.022 42.56L104.782 43.88C104.835 43.96 104.862 44.0667 104.862 44.2C104.862 44.3867 104.755 44.5467 104.542 44.68C103.475 45.3467 102.328 45.8267 101.102 46.12C99.9016 46.44 98.5149 46.6 96.9416 46.6ZM102.862 35.08C102.862 33.08 102.315 31.5333 101.222 30.44C100.128 29.32 98.5016 28.76 96.3416 28.76C94.1282 28.76 92.4216 29.3333 91.2216 30.48C90.0482 31.6267 89.4616 33.16 89.4616 35.08H102.862ZM111.966 46C111.166 46 110.766 45.6 110.766 44.8V20C110.766 19.2 111.166 18.8 111.966 18.8H113.206C113.633 18.8 113.939 18.9067 114.126 19.12C114.313 19.3067 114.406 19.6 114.406 20V44.8C114.406 45.2 114.313 45.5067 114.126 45.72C113.939 45.9067 113.633 46 113.206 46H111.966ZM125.206 46C124.966 46 124.779 45.9733 124.646 45.92C124.513 45.8667 124.379 45.76 124.246 45.6L116.526 37.48C116.286 37.24 116.113 37 116.006 36.76C115.899 36.52 115.846 36.2267 115.846 35.88C115.846 35.5067 115.899 35.2 116.006 34.96C116.113 34.72 116.286 34.4933 116.526 34.28L123.966 27.2C124.153 27.0133 124.299 26.9067 124.406 26.88C124.539 26.8267 124.766 26.8 125.086 26.8H127.566C127.699 26.8 127.806 26.8533 127.886 26.96C127.966 27.04 128.006 27.1467 128.006 27.28C128.006 27.4667 127.939 27.6133 127.806 27.72L119.246 35.88L128.086 45.08C128.219 45.2667 128.286 45.4267 128.286 45.56C128.286 45.6933 128.246 45.8 128.166 45.88C128.086 45.96 127.979 46 127.846 46H125.206ZM137.827 46.6C135.16 46.6 133.04 45.8267 131.467 44.28C129.893 42.7067 129.107 40.48 129.107 37.6C129.107 35.3333 129.573 33.3467 130.507 31.64C131.467 29.9067 132.84 28.5733 134.627 27.64C136.413 26.68 138.507 26.2 140.907 26.2C142.587 26.2 144.133 26.4267 145.547 26.88C146.96 27.3067 148.147 27.8533 149.107 28.52V45C149.107 45.3467 149.027 45.6 148.867 45.76C148.707 45.92 148.44 46 148.067 46H146.827C146.533 46 146.32 45.9333 146.187 45.8C146.053 45.6667 145.96 45.4533 145.907 45.16L145.707 43.4C144.853 44.52 143.787 45.3333 142.507 45.84C141.227 46.3467 139.667 46.6 137.827 46.6ZM139.187 43.84C140.253 43.84 141.28 43.6267 142.267 43.2C143.253 42.7733 144.053 42.16 144.667 41.36C145.28 40.5333 145.587 39.5867 145.587 38.52V29.92C144.253 29.2533 142.667 28.92 140.827 28.92C138.373 28.92 136.4 29.68 134.907 31.2C133.413 32.6933 132.667 34.76 132.667 37.4C132.667 39.6133 133.2 41.24 134.267 42.28C135.36 43.32 137 43.84 139.187 43.84ZM184.354 46.6C179.927 46.6 176.5 45.36 174.074 42.88C171.674 40.4 170.474 36.9067 170.474 32.4C170.474 27.8933 171.674 24.4 174.074 21.92C176.5 19.44 179.927 18.2 184.354 18.2C186.06 18.2 187.66 18.3733 189.154 18.72C190.674 19.0667 191.94 19.5733 192.954 20.24C193.167 20.3733 193.274 20.52 193.274 20.68C193.274 20.7867 193.234 20.92 193.154 21.08L192.314 22.48C192.207 22.6933 192.087 22.8 191.954 22.8C191.82 22.8 191.687 22.7467 191.554 22.64C190.754 22.16 189.767 21.7733 188.594 21.48C187.42 21.16 186.114 21 184.674 21C181.394 21 178.794 21.9467 176.874 23.84C174.98 25.7067 174.034 28.56 174.034 32.4C174.034 36.24 174.98 39.0933 176.874 40.96C178.767 42.8267 181.314 43.76 184.514 43.76C185.767 43.76 186.994 43.6533 188.194 43.44C189.394 43.2267 190.38 42.9333 191.154 42.56V33.88H184.954C184.527 33.88 184.22 33.7867 184.034 33.6C183.874 33.4133 183.794 33.12 183.794 32.72V32.04C183.794 31.64 183.874 31.36 184.034 31.2C184.22 31.04 184.527 30.96 184.954 30.96H193.354C193.807 30.96 194.127 31.0667 194.314 31.28C194.527 31.4933 194.634 31.8267 194.634 32.28V43.24C194.634 43.5867 194.607 43.84 194.554 44C194.5 44.16 194.367 44.2933 194.154 44.4C191.54 45.8667 188.274 46.6 184.354 46.6ZM200.403 46C199.603 46 199.203 45.6 199.203 44.8V20C199.203 19.2 199.603 18.8 200.403 18.8H201.643C202.07 18.8 202.377 18.9067 202.563 19.12C202.75 19.3067 202.843 19.6 202.843 20V44.8C202.843 45.2 202.75 45.5067 202.563 45.72C202.377 45.9067 202.07 46 201.643 46H200.403ZM216.108 46.6C213.441 46.6 211.321 45.8267 209.748 44.28C208.174 42.7067 207.388 40.48 207.388 37.6C207.388 35.3333 207.854 33.3467 208.788 31.64C209.748 29.9067 211.121 28.5733 212.908 27.64C214.694 26.68 216.788 26.2 219.188 26.2C220.868 26.2 222.414 26.4267 223.828 26.88C225.241 27.3067 226.428 27.8533 227.388 28.52V45C227.388 45.3467 227.308 45.6 227.148 45.76C226.988 45.92 226.721 46 226.348 46H225.108C224.814 46 224.601 45.9333 224.468 45.8C224.334 45.6667 224.241 45.4533 224.188 45.16L223.988 43.4C223.134 44.52 222.068 45.3333 220.788 45.84C219.508 46.3467 217.948 46.6 216.108 46.6ZM217.468 43.84C218.534 43.84 219.561 43.6267 220.548 43.2C221.534 42.7733 222.334 42.16 222.948 41.36C223.561 40.5333 223.868 39.5867 223.868 38.52V29.92C222.534 29.2533 220.948 28.92 219.108 28.92C216.654 28.92 214.681 29.68 213.188 31.2C211.694 32.6933 210.948 34.76 210.948 37.4C210.948 39.6133 211.481 41.24 212.548 42.28C213.641 43.32 215.281 43.84 217.468 43.84ZM239.583 46.6C238.089 46.6 236.596 46.44 235.103 46.12C233.636 45.8 232.396 45.3067 231.383 44.64C231.116 44.48 230.983 44.32 230.983 44.16C230.983 44.08 231.023 43.96 231.103 43.8L231.943 42.36C232.076 42.1467 232.196 42.04 232.303 42.04C232.329 42.04 232.449 42.0933 232.663 42.2C233.489 42.7333 234.476 43.16 235.623 43.48C236.769 43.7733 237.903 43.92 239.023 43.92C240.783 43.92 242.076 43.72 242.903 43.32C243.729 42.8933 244.143 42.1867 244.143 41.2C244.143 40.56 243.969 40.0533 243.623 39.68C243.303 39.28 242.756 38.9333 241.983 38.64C241.236 38.32 240.036 37.92 238.383 37.44C236.863 36.9867 235.649 36.5333 234.743 36.08C233.836 35.6267 233.116 35.04 232.583 34.32C232.049 33.5733 231.783 32.64 231.783 31.52C231.783 29.76 232.489 28.44 233.903 27.56C235.343 26.6533 237.223 26.2 239.543 26.2C241.036 26.2 242.423 26.3733 243.703 26.72C244.983 27.04 246.063 27.4933 246.943 28.08C247.209 28.24 247.343 28.4133 247.343 28.6C247.343 28.68 247.303 28.8 247.223 28.96L246.423 30.28C246.316 30.4667 246.209 30.56 246.103 30.56C245.969 30.56 245.836 30.5067 245.703 30.4C244.129 29.3867 242.183 28.88 239.863 28.88C238.263 28.88 237.103 29.08 236.383 29.48C235.663 29.88 235.303 30.5867 235.303 31.6C235.303 32.24 235.476 32.76 235.823 33.16C236.196 33.5333 236.689 33.8533 237.303 34.12C237.916 34.36 238.863 34.6667 240.143 35.04L241.703 35.52C243.249 36 244.449 36.4933 245.303 37C246.183 37.5067 246.809 38.0933 247.183 38.76C247.556 39.4267 247.743 40.2667 247.743 41.28C247.743 42.88 247.049 44.1733 245.663 45.16C244.276 46.12 242.249 46.6 239.583 46.6ZM259.114 46.6C257.62 46.6 256.127 46.44 254.634 46.12C253.167 45.8 251.927 45.3067 250.914 44.64C250.647 44.48 250.514 44.32 250.514 44.16C250.514 44.08 250.554 43.96 250.634 43.8L251.474 42.36C251.607 42.1467 251.727 42.04 251.834 42.04C251.86 42.04 251.98 42.0933 252.194 42.2C253.02 42.7333 254.007 43.16 255.154 43.48C256.3 43.7733 257.434 43.92 258.554 43.92C260.314 43.92 261.607 43.72 262.434 43.32C263.26 42.8933 263.674 42.1867 263.674 41.2C263.674 40.56 263.5 40.0533 263.154 39.68C262.834 39.28 262.287 38.9333 261.514 38.64C260.767 38.32 259.567 37.92 257.914 37.44C256.394 36.9867 255.18 36.5333 254.274 36.08C253.367 35.6267 252.647 35.04 252.114 34.32C251.58 33.5733 251.314 32.64 251.314 31.52C251.314 29.76 252.02 28.44 253.434 27.56C254.874 26.6533 256.754 26.2 259.074 26.2C260.567 26.2 261.954 26.3733 263.234 26.72C264.514 27.04 265.594 27.4933 266.474 28.08C266.74 28.24 266.874 28.4133 266.874 28.6C266.874 28.68 266.834 28.8 266.754 28.96L265.954 30.28C265.847 30.4667 265.74 30.56 265.634 30.56C265.5 30.56 265.367 30.5067 265.234 30.4C263.66 29.3867 261.714 28.88 259.394 28.88C257.794 28.88 256.634 29.08 255.914 29.48C255.194 29.88 254.834 30.5867 254.834 31.6C254.834 32.24 255.007 32.76 255.354 33.16C255.727 33.5333 256.22 33.8533 256.834 34.12C257.447 34.36 258.394 34.6667 259.674 35.04L261.234 35.52C262.78 36 263.98 36.4933 264.834 37C265.714 37.5067 266.34 38.0933 266.714 38.76C267.087 39.4267 267.274 40.2667 267.274 41.28C267.274 42.88 266.58 44.1733 265.194 45.16C263.807 46.12 261.78 46.6 259.114 46.6Z" fill="white"/>
</svg>
